<?xml version="1.0" standalone="no"?>
<!DOCTYPE svg PUBLIC "-//W3C//DTD SVG 20010904//EN"
 "http://www.w3.org/TR/2001/REC-SVG-20010904/DTD/svg10.dtd">
<svg version="1.0" xmlns="http://www.w3.org/2000/svg"
 width="500.000000pt" height="500.000000pt" viewBox="0 0 500.000000 500.000000"
 preserveAspectRatio="xMidYMid meet">

<g transform="translate(0.000000,500.000000) scale(0.100000,-0.100000)"
fill="#000000" stroke="none">
<path d="M2350 4344 c-448 -32 -1003 -167 -1410 -342 l-115 -49 -22 -254 c-12
-140 -22 -264 -22 -276 l-1 -23 -324 -2 -325 -3 104 -125 c84 -101 103 -129
99 -150 -2 -14 -29 -218 -59 -455 -31 -236 -60 -460 -65 -497 -6 -37 -10 -76
-10 -87 0 -16 51 -45 276 -155 151 -75 273 -139 271 -143 -3 -4 -62 -102 -132
-217 -104 -172 -122 -208 -103 -202 120 33 407 102 526 126 l147 29 45 -43
c158 -151 270 -227 809 -552 l460 -277 143 85 c745 444 903 546 1075 697 66
57 109 88 120 85 10 -2 77 -15 148 -30 107 -21 439 -100 508 -120 14 -5 -133
253 -231 404 -14 22 -13 23 263 158 l277 136 -7 56 c-3 32 -17 140 -30 242
-14 102 -40 309 -60 460 -19 151 -37 286 -39 300 -4 21 15 49 99 150 l104 125
-323 3 -323 2 -6 58 c-3 31 -14 156 -23 276 l-18 219 -141 68 c-322 154 -648
251 -1015 300 -141 19 -536 32 -670 23z m480 -209 c203 -23 392 -67 688 -156
154 -47 447 -153 464 -168 6 -5 38 -345 38 -398 0 -9 -22 -13 -79 -13 -67 0
-80 3 -85 18 -2 9 -8 69 -11 133 -4 64 -10 121 -14 127 -12 19 -396 131 -626
182 -507 114 -936 105 -1493 -30 -201 -49 -523 -139 -538 -151 -6 -5 -14 -60
-18 -127 -4 -64 -9 -125 -12 -134 -5 -15 -18 -18 -85 -18 -93 0 -85 -25 -64
205 8 88 15 170 15 182 0 26 -2 25 200 101 318 120 673 208 990 247 147 18
478 18 630 0z m-217 -435 l92 0 -70 -51 c-39 -28 -71 -55 -73 -59 -2 -5 8 -44
23 -86 14 -42 25 -78 22 -80 -2 -2 -28 14 -58 37 -89 67 -82 66 -158 10 -38
-28 -71 -51 -74 -51 -3 0 7 38 23 85 l29 86 -72 52 -72 52 89 5 89 5 24 70
c13 39 26 77 29 85 4 9 18 -20 36 -72 l30 -88 91 0z m-770 -111 c61 0 62 0 37
-17 -13 -9 -35 -26 -49 -38 -24 -20 -24 -21 -8 -69 10 -27 15 -50 14 -52 -2
-2 -22 10 -45 27 -23 16 -45 30 -48 30 -3 0 -24 -14 -46 -31 -21 -17 -41 -30
-43 -28 -2 2 3 22 11 44 20 59 18 67 -29 100 l-42 30 57 3 57 3 18 56 17 55
19 -56 19 -56 61 -1z m1318 54 l15 -48 59 -5 60 -5 -47 -33 c-49 -36 -50 -37
-19 -114 13 -35 9 -35 -44 3 l-43 31 -46 -31 c-51 -35 -53 -33 -31 30 18 49
20 43 -53 98 l-27 20 62 1 61 0 13 50 c7 28 16 50 19 50 4 0 13 -21 21 -47z
m-2361 -393 c0 -24 -30 -304 -33 -306 -1 -1 -32 -4 -69 -8 l-67 -6 6 51 c6 49
5 51 -18 47 -42 -5 -34 -40 45 -195 l75 -149 -21 -189 c-12 -105 -24 -194 -28
-198 -10 -11 -309 -91 -316 -84 -9 8 27 329 38 343 5 7 29 15 55 19 25 4 52 9
61 12 12 5 14 -2 10 -46 -4 -43 -3 -51 9 -47 8 4 18 6 23 6 4 0 10 9 13 21 4
13 -20 71 -70 169 l-75 148 21 178 c12 99 24 196 27 217 l6 37 154 0 c148 0
154 -1 154 -20z m340 3 c0 -28 -29 -275 -32 -278 -2 -2 -31 -7 -66 -11 l-62
-7 0 47 c0 39 -3 46 -20 46 -25 0 -25 -1 -50 -245 -11 -110 -23 -210 -26 -222
-4 -19 0 -23 20 -23 21 0 26 6 31 38 4 20 8 42 10 48 3 11 123 30 131 21 5 -5
-24 -286 -32 -298 -3 -5 -14 -9 -24 -9 -10 0 -80 -14 -155 -31 -75 -17 -139
-28 -142 -26 -2 3 14 169 37 368 22 200 45 411 51 469 6 58 12 111 14 118 3 9
44 12 160 12 141 0 155 -2 155 -17z m335 -35 c-7 -64 -35 -386 -35 -410 0 -10
-9 -18 -22 -20 -23 -3 -23 -5 -21 -143 1 -77 5 -156 8 -176 6 -41 4 -42 -91
-55 l-52 -6 -8 138 c-8 152 -16 142 -29 -39 -4 -54 -12 -100 -19 -105 -10 -6
-129 -32 -133 -28 -1 0 14 145 32 321 18 176 37 356 41 400 4 44 9 83 10 88 1
4 2 25 3 47 l1 40 161 0 160 0 -6 -52z m155 15 c0 -21 -9 -153 -20 -293 -25
-317 -25 -290 5 -290 21 0 25 5 25 28 0 15 9 144 20 287 11 143 20 270 20 283
0 21 4 22 69 22 l69 0 -4 -37 c-2 -21 -13 -198 -25 -393 -12 -195 -24 -358
-28 -362 -5 -6 -323 -48 -328 -43 -2 1 27 366 57 695 5 63 10 121 10 128 0 8
20 12 65 12 l65 0 0 -37z m370 15 c0 -36 29 -340 33 -344 1 -2 15 74 31 168
15 94 30 177 33 185 4 9 27 13 83 13 l77 0 -4 -207 c-3 -115 -8 -287 -11 -383
l-7 -175 -70 -3 -70 -3 2 133 1 133 -27 -135 -27 -135 -31 -3 -31 -3 -12 137
c-15 155 -28 156 -29 2 -1 -140 -5 -145 -87 -150 l-66 -3 5 75 c4 41 13 201
22 355 9 154 18 299 21 323 l5 42 80 0 c75 0 79 -1 79 -22z m624 -10 c3 -18
15 -98 27 -178 19 -131 29 -178 29 -139 0 8 9 88 20 179 11 91 20 166 20 168
0 1 35 2 79 2 l78 0 6 -127 c4 -71 9 -234 12 -363 4 -129 8 -245 11 -258 5
-22 3 -23 -68 -20 l-73 3 -5 155 c-3 85 -7 150 -8 143 -1 -7 -9 -63 -17 -125
-23 -172 -22 -168 -55 -168 -33 0 -28 -14 -60 175 l-18 110 -1 -142 -1 -143
-70 0 -70 0 0 380 0 380 80 0 79 0 5 -32z m558 -58 c9 -47 42 -215 73 -375 31
-159 59 -301 62 -314 l6 -24 -68 6 c-37 4 -70 9 -73 11 -2 3 -7 20 -11 38 -6
30 -10 33 -48 36 -41 3 -42 2 -49 -34 l-7 -36 -63 4 c-35 2 -66 7 -69 10 -3 3
3 88 14 189 11 101 28 273 37 382 l18 198 81 -3 80 -3 17 -85z m432 -2 c4 -51
9 -115 13 -141 l6 -48 -69 3 -69 3 -3 38 c-3 32 -7 37 -28 37 -14 0 -24 -6
-24 -14 0 -8 47 -76 104 -150 117 -151 105 -118 127 -359 6 -66 9 -121 6 -123
-2 -2 -50 3 -108 11 -57 8 -131 18 -164 22 l-60 8 -9 133 c-5 73 -7 134 -5
135 2 2 33 1 69 -2 l65 -6 3 -35 c4 -35 15 -50 40 -50 30 0 5 47 -92 171
l-104 134 -11 153 c-6 84 -11 157 -11 162 0 6 62 10 159 10 l158 0 7 -92z
m313 -10 c11 -113 9 -121 -39 -111 -15 3 -28 2 -28 -3 0 -5 16 -157 34 -339
19 -181 33 -331 31 -333 -1 -2 -32 2 -69 9 -55 9 -67 15 -71 33 -2 11 -12 104
-21 206 -9 102 -21 239 -28 305 l-11 119 -42 9 c-40 8 -43 11 -43 40 0 18 -3
62 -7 100 l-6 67 145 0 145 0 10 -102z m277 75 c3 -16 8 -59 11 -98 4 -38 9
-78 12 -88 4 -17 -1 -18 -58 -16 -72 3 -74 1 -64 -76 l6 -54 52 -3 52 -3 12
-90 c19 -151 22 -143 -39 -137 l-51 5 7 -58 c3 -32 9 -61 11 -66 3 -4 29 -11
59 -14 29 -4 57 -10 63 -13 10 -7 37 -221 29 -229 -2 -3 -64 9 -138 25 l-133
29 -7 59 c-3 32 -14 127 -22 209 -9 83 -27 254 -41 382 -14 127 -25 238 -25
247 0 14 18 16 129 16 l129 0 6 -27z m336 21 c0 -9 59 -512 66 -563 6 -43 5
-43 -20 -37 -14 3 -26 3 -26 0 0 -4 23 -105 50 -225 28 -120 50 -222 50 -228
0 -5 -31 0 -68 11 l-69 20 -39 163 c-21 90 -40 162 -42 160 -2 -1 5 -69 14
-149 9 -80 15 -149 12 -152 -5 -5 -126 20 -132 27 -2 2 -27 216 -55 474 -29
259 -55 478 -57 488 -5 16 7 17 155 17 89 0 161 -3 161 -6z m-1540 -895 c194
-15 389 -38 578 -69 96 -16 175 -30 177 -32 1 -2 11 -117 22 -256 l19 -254
-26 6 c-14 3 -74 17 -135 30 -514 119 -1235 148 -1827 75 -173 -21 -392 -60
-510 -89 -42 -11 -80 -20 -85 -20 -7 0 24 499 32 508 6 7 353 61 485 76 123
14 351 31 540 40 118 6 592 -4 730 -15z m-1871 -346 c-22 -316 -30 -418 -34
-421 -2 -2 -55 -14 -117 -27 -62 -13 -149 -32 -193 -43 -44 -10 -82 -18 -84
-16 -2 1 38 71 88 153 50 83 91 157 91 163 0 7 -29 55 -65 107 -36 52 -62 98
-58 102 6 6 210 49 343 72 14 2 27 5 30 6 3 0 2 -43 -1 -96z m2946 56 c88 -17
163 -34 168 -38 4 -4 -22 -50 -58 -102 -36 -52 -65 -100 -65 -107 0 -11 158
-280 183 -311 10 -11 8 -13 -9 -7 -34 11 -336 76 -353 76 -41 1 -39 -18 -70
432 l-6 97 25 -5 c14 -2 97 -18 185 -35z m-1537 -345 l28 -89 103 -3 104 -3
-81 -60 c-45 -33 -82 -61 -82 -62 0 -1 13 -43 30 -92 16 -50 30 -93 30 -98 0
-4 -33 17 -72 46 -40 29 -79 57 -85 61 -8 4 -43 -15 -89 -49 -42 -31 -78 -54
-81 -51 -3 3 8 45 25 95 l30 90 -80 58 -81 58 101 3 100 3 27 87 c29 93 35
106 41 99 3 -2 17 -44 32 -93z m-947 -90 c114 -91 254 -181 627 -404 l283
-170 262 158 c144 87 285 171 312 187 88 50 250 162 341 235 48 38 94 70 101
70 8 0 52 -10 98 -21 l84 -21 -55 -51 c-172 -157 -278 -229 -734 -504 -201
-121 -375 -225 -387 -233 -20 -13 -49 3 -417 224 -474 285 -576 355 -754 517
l-53 48 28 7 c15 3 51 12 78 19 28 7 59 14 71 14 11 1 62 -32 115 -75z"/>
<path d="M1276 3044 c-3 -9 -6 -36 -6 -61 0 -40 2 -44 23 -41 19 3 22 10 25
61 3 51 1 57 -16 57 -11 0 -23 -7 -26 -16z"/>
<path d="M3101 2910 c-1 -14 -4 -55 -8 -92 -6 -65 -5 -68 16 -68 15 0 21 6 20
23 -1 37 -27 164 -28 137z"/>
<path d="M4393 2963 c6 -64 16 -83 45 -83 9 0 11 13 7 53 -10 88 -14 97 -37
97 -20 0 -21 -3 -15 -67z"/>
</g>
</svg>
